/vscmnt/brussel_pixiu_data/_data_brussel/112/vsc11236/PredSimResults/SUBJ11mtu3D/worker7.mot
version=1
nRows=4
nColumns=50
inDegrees=yes
endheader
                time	         pelvis_tilt	         pelvis_list	     pelvis_rotation	           pelvis_tx	           pelvis_ty	           pelvis_tz	       hip_flexion_r	     hip_adduction_r	      hip_rotation_r	        knee_angle_r	       ankle_angle_r	         mtp_angle_r	       hip_flexion_l	     hip_adduction_l	      hip_rotation_l	        knee_angle_l	       ankle_angle_l	         mtp_angle_l	    lumbar_extension	      lumbar_bending	     lumbar_rotation	 ercspn_r/activation	 intobl_r/activation	 extobl_r/activation	    abd_r/activation	    add_r/activation	hamstrings_r/activation	bifemsh_r/activation	glut_max_r/activation	iliopsoas_r/activation	rect_fem_r/activation	  vasti_r/activation	gastroc_r/activation	 soleus_r/activation	tib_ant_r/activation	 ercspn_l/activation	 intobl_l/activation	 extobl_l/activation	    abd_l/activation	    add_l/activation	hamstrings_l/activation	bifemsh_l/activation	glut_max_l/activation	iliopsoas_l/activation	rect_fem_l/activation	  vasti_l/activation	gastroc_l/activation	 soleus_l/activation	tib_ant_l/activation	
          1.33929853	         -3.37669778	         -0.71578030	          6.15644902	          1.47322838	          0.94125581	         -0.01009916	         30.93444432	         -3.02176307	         -5.09135220	         -9.48764619	          1.15257704	          0.26584910	        -13.96630985	         -2.94329147	         -2.18398979	        -11.73242022	         11.35787496	         30.25501441	        -14.10004412	         -1.03176464	         -4.77378838	          0.04812609	          0.17512111	          0.03759258	          0.01000006	          0.20103418	          0.04941620	          0.15979329	          0.09863920	          0.07222826	          0.03404654	          0.01000047	          0.01000065	          0.01000017	          0.44772252	          0.04120890	          0.01000045	          0.01000034	          0.03851026	          0.01514543	          0.01389584	          0.17173954	          0.01881249	          0.01499617	          0.01223384	          0.01000075	          0.12886313	          0.28019279	          0.01246536	
          1.35269152	         -3.46969708	         -0.74613501	          6.28457409	          1.49205820	          0.93935945	         -0.00855423	         30.61043052	         -2.89919014	         -5.28964216	        -10.69466406	          0.65526686	          0.21685620	        -14.60473793	         -3.21810338	         -2.46731646	        -12.36235979	         10.39010852	         32.05896863	        -13.64125055	         -0.65214483	         -5.09708757	          0.03934429	          0.14316455	          0.03073259	          0.05016504	          0.17632050	          0.05859970	          0.13063457	          0.11665466	          0.05904785	          0.02783394	          0.01000031	          0.01223280	          0.01223204	          0.50231741	          0.03369091	          0.01000042	          0.01000194	          0.03148281	          0.01238335	          0.03278097	          0.14040040	          0.01658917	          0.01226089	          0.01000240	          0.01125779	          0.10534794	          0.25609329	          0.01019069	
          1.36608450	         -3.54495986	         -0.77037550	          6.38627170	          1.51110244	          0.93784419	         -0.00691879	         30.27484733	         -2.79502614	         -5.49451413	        -11.93032887	          0.03628909	          0.20589358	        -15.07033910	         -3.49801736	         -2.76653278	        -13.31961716	          9.26811988	         33.91206180	        -13.17115739	         -0.28138249	         -5.40215434	          0.04071313	          0.11703948	          0.02512443	          0.10095296	          0.22029505	          0.04876919	          0.10679651	          0.13481192	          0.04827265	          0.02275504	          0.01000041	          0.01000072	          0.01000010	          0.56936952	          0.05706016	          0.01000023	          0.01000063	          0.02573775	          0.01012468	          0.02680051	          0.11478009	          0.01356217	          0.01003868	          0.01000631	          0.01474968	          0.08612377	          0.23057514	          0.01000013	
          1.37947749	         -3.60208317	         -0.77697048	          6.45783801	          1.53008486	          0.93688599	         -0.00519607	         30.06210649	         -2.71616625	         -5.71453343	        -13.38725547	         -0.59077428	          0.15832050	        -15.26841713	         -3.77230648	         -3.07033100	        -14.73333448	          7.98179641	         35.78017226	        -12.72387194	          0.06702154	         -5.68338662	          0.05528285	          0.09568179	          0.02053967	          0.13636619	          0.28210284	          0.04777233	          0.08730836	          0.14428294	          0.03946374	          0.01860297	          0.04062984	          0.01000067	          0.01000030	          0.60870365	          0.08312370	          0.01000035	          0.01000044	          0.02104106	          0.07926291	          0.02191621	          0.09383506	          0.01108813	          0.01000460	          0.01000406	          0.01434177	          0.07040767	          0.19237823	          0.01000015	
